<mxfile host="app.diagrams.net" modified="2023-11-30T08:43:04.997Z" agent="Mozilla/5.0 (Windows NT 10.0; Win64; x64) AppleWebKit/537.36 (KHTML, like Gecko) Chrome/119.0.0.0 Safari/537.36 Edg/119.0.0.0" etag="Jg_JYP8muq-xtZ5NgFOO" version="22.1.5" type="device">
  <diagram id="C5RBs43oDa-KdzZeNtuy" name="Page-1">
    <mxGraphModel dx="1127" dy="2033" grid="1" gridSize="10" guides="1" tooltips="1" connect="1" arrows="1" fold="1" page="1" pageScale="1" pageWidth="827" pageHeight="1169" math="0" shadow="0">
      <root>
        <mxCell id="WIyWlLk6GJQsqaUBKTNV-0" />
        <mxCell id="WIyWlLk6GJQsqaUBKTNV-1" parent="WIyWlLk6GJQsqaUBKTNV-0" />
        <mxCell id="a9Li45Q5bDSex4bEBp2d-1" style="edgeStyle=orthogonalEdgeStyle;rounded=0;orthogonalLoop=1;jettySize=auto;html=1;" parent="WIyWlLk6GJQsqaUBKTNV-1" source="a9Li45Q5bDSex4bEBp2d-2" target="a9Li45Q5bDSex4bEBp2d-9" edge="1">
          <mxGeometry relative="1" as="geometry" />
        </mxCell>
        <mxCell id="a9Li45Q5bDSex4bEBp2d-2" value="start" style="ellipse;whiteSpace=wrap;html=1;" parent="WIyWlLk6GJQsqaUBKTNV-1" vertex="1">
          <mxGeometry x="30" y="360" width="120" height="80" as="geometry" />
        </mxCell>
        <mxCell id="a9Li45Q5bDSex4bEBp2d-43" value="" style="edgeStyle=orthogonalEdgeStyle;rounded=0;orthogonalLoop=1;jettySize=auto;html=1;" parent="WIyWlLk6GJQsqaUBKTNV-1" source="a9Li45Q5bDSex4bEBp2d-7" target="a9Li45Q5bDSex4bEBp2d-42" edge="1">
          <mxGeometry relative="1" as="geometry" />
        </mxCell>
        <mxCell id="a9Li45Q5bDSex4bEBp2d-7" value="&lt;div&gt;nhapThongTinSinhVien(&amp;amp;sv);&lt;/div&gt;&lt;div&gt;&amp;nbsp; &amp;nbsp; xuatThongTinSinhVien(sv);&lt;/div&gt;" style="rounded=0;whiteSpace=wrap;html=1;" parent="WIyWlLk6GJQsqaUBKTNV-1" vertex="1">
          <mxGeometry x="610" y="330" width="160" height="140" as="geometry" />
        </mxCell>
        <mxCell id="a9Li45Q5bDSex4bEBp2d-8" style="edgeStyle=orthogonalEdgeStyle;rounded=0;orthogonalLoop=1;jettySize=auto;html=1;exitX=1;exitY=0.75;exitDx=0;exitDy=0;" parent="WIyWlLk6GJQsqaUBKTNV-1" source="a9Li45Q5bDSex4bEBp2d-9" target="a9Li45Q5bDSex4bEBp2d-7" edge="1">
          <mxGeometry relative="1" as="geometry">
            <Array as="points">
              <mxPoint x="414" y="402" />
              <mxPoint x="414" y="400" />
            </Array>
          </mxGeometry>
        </mxCell>
        <mxCell id="a9Li45Q5bDSex4bEBp2d-9" value="struct SinhVien sv" style="shape=parallelogram;perimeter=parallelogramPerimeter;whiteSpace=wrap;html=1;fixedSize=1;" parent="WIyWlLk6GJQsqaUBKTNV-1" vertex="1">
          <mxGeometry x="340" y="370" width="120" height="60" as="geometry" />
        </mxCell>
        <mxCell id="a9Li45Q5bDSex4bEBp2d-42" value="end" style="ellipse;whiteSpace=wrap;html=1;" parent="WIyWlLk6GJQsqaUBKTNV-1" vertex="1">
          <mxGeometry x="870" y="360" width="120" height="80" as="geometry" />
        </mxCell>
        <mxCell id="OJeUVcxQJhu6BsguNXDx-2" value="" style="edgeStyle=orthogonalEdgeStyle;rounded=0;orthogonalLoop=1;jettySize=auto;html=1;" edge="1" parent="WIyWlLk6GJQsqaUBKTNV-1" source="OJeUVcxQJhu6BsguNXDx-0" target="OJeUVcxQJhu6BsguNXDx-1">
          <mxGeometry relative="1" as="geometry" />
        </mxCell>
        <mxCell id="OJeUVcxQJhu6BsguNXDx-0" value="start" style="ellipse;whiteSpace=wrap;html=1;" vertex="1" parent="WIyWlLk6GJQsqaUBKTNV-1">
          <mxGeometry x="90" y="-160" width="120" height="80" as="geometry" />
        </mxCell>
        <mxCell id="OJeUVcxQJhu6BsguNXDx-4" value="" style="edgeStyle=orthogonalEdgeStyle;rounded=0;orthogonalLoop=1;jettySize=auto;html=1;" edge="1" parent="WIyWlLk6GJQsqaUBKTNV-1" source="OJeUVcxQJhu6BsguNXDx-1" target="OJeUVcxQJhu6BsguNXDx-3">
          <mxGeometry relative="1" as="geometry" />
        </mxCell>
        <mxCell id="OJeUVcxQJhu6BsguNXDx-1" value="struct SinhVien" style="shape=parallelogram;perimeter=parallelogramPerimeter;whiteSpace=wrap;html=1;fixedSize=1;" vertex="1" parent="WIyWlLk6GJQsqaUBKTNV-1">
          <mxGeometry x="294" y="-150" width="120" height="60" as="geometry" />
        </mxCell>
        <mxCell id="OJeUVcxQJhu6BsguNXDx-3" value="char hoTen[50];&lt;br&gt;&amp;nbsp; &amp;nbsp; int tuoi;&lt;br&gt;&amp;nbsp; &amp;nbsp; char soDienThoai[20];&lt;br&gt;&amp;nbsp; &amp;nbsp; char email[50];&lt;br&gt;" style="rounded=0;whiteSpace=wrap;html=1;" vertex="1" parent="WIyWlLk6GJQsqaUBKTNV-1">
          <mxGeometry x="500" y="-190" width="170" height="140" as="geometry" />
        </mxCell>
        <mxCell id="OJeUVcxQJhu6BsguNXDx-8" style="edgeStyle=orthogonalEdgeStyle;rounded=0;orthogonalLoop=1;jettySize=auto;html=1;" edge="1" parent="WIyWlLk6GJQsqaUBKTNV-1" source="OJeUVcxQJhu6BsguNXDx-6" target="OJeUVcxQJhu6BsguNXDx-7">
          <mxGeometry relative="1" as="geometry" />
        </mxCell>
        <mxCell id="OJeUVcxQJhu6BsguNXDx-6" value="start" style="ellipse;whiteSpace=wrap;html=1;" vertex="1" parent="WIyWlLk6GJQsqaUBKTNV-1">
          <mxGeometry x="100" width="120" height="80" as="geometry" />
        </mxCell>
        <mxCell id="OJeUVcxQJhu6BsguNXDx-10" style="edgeStyle=orthogonalEdgeStyle;rounded=0;orthogonalLoop=1;jettySize=auto;html=1;" edge="1" parent="WIyWlLk6GJQsqaUBKTNV-1" source="OJeUVcxQJhu6BsguNXDx-7" target="OJeUVcxQJhu6BsguNXDx-9">
          <mxGeometry relative="1" as="geometry" />
        </mxCell>
        <mxCell id="OJeUVcxQJhu6BsguNXDx-7" value="nhapThongTinSinhVien(struct SinhVien *sv)" style="rounded=0;whiteSpace=wrap;html=1;shape=label;fixedSize=1;" vertex="1" parent="WIyWlLk6GJQsqaUBKTNV-1">
          <mxGeometry x="290" y="10" width="270" height="60" as="geometry" />
        </mxCell>
        <mxCell id="OJeUVcxQJhu6BsguNXDx-9" value="sv-&amp;gt;hoTen&lt;br&gt;&amp;amp;sv-&amp;gt;tuoi&lt;br&gt;&amp;nbsp;sv-&amp;gt;soDienThoai&lt;br&gt;&amp;nbsp;sv-&amp;gt;email" style="rhombus;whiteSpace=wrap;html=1;" vertex="1" parent="WIyWlLk6GJQsqaUBKTNV-1">
          <mxGeometry x="700" y="-30" width="220" height="140" as="geometry" />
        </mxCell>
        <mxCell id="OJeUVcxQJhu6BsguNXDx-11" style="edgeStyle=orthogonalEdgeStyle;rounded=0;orthogonalLoop=1;jettySize=auto;html=1;" edge="1" parent="WIyWlLk6GJQsqaUBKTNV-1" source="OJeUVcxQJhu6BsguNXDx-12" target="OJeUVcxQJhu6BsguNXDx-14">
          <mxGeometry relative="1" as="geometry" />
        </mxCell>
        <mxCell id="OJeUVcxQJhu6BsguNXDx-12" value="start" style="ellipse;whiteSpace=wrap;html=1;" vertex="1" parent="WIyWlLk6GJQsqaUBKTNV-1">
          <mxGeometry x="100" y="160" width="120" height="80" as="geometry" />
        </mxCell>
        <mxCell id="OJeUVcxQJhu6BsguNXDx-13" style="edgeStyle=orthogonalEdgeStyle;rounded=0;orthogonalLoop=1;jettySize=auto;html=1;" edge="1" parent="WIyWlLk6GJQsqaUBKTNV-1" source="OJeUVcxQJhu6BsguNXDx-14" target="OJeUVcxQJhu6BsguNXDx-15">
          <mxGeometry relative="1" as="geometry" />
        </mxCell>
        <mxCell id="OJeUVcxQJhu6BsguNXDx-14" value="xuatThongTinSinhVien(struct SinhVien sv)" style="rounded=0;whiteSpace=wrap;html=1;shape=label;fixedSize=1;" vertex="1" parent="WIyWlLk6GJQsqaUBKTNV-1">
          <mxGeometry x="290" y="170" width="270" height="60" as="geometry" />
        </mxCell>
        <mxCell id="OJeUVcxQJhu6BsguNXDx-15" value="sv.hoTen&lt;br&gt;sv.tuoi&lt;br&gt;&amp;nbsp;sv.soDienThoai&lt;br&gt;&amp;nbsp;sv.email" style="rhombus;whiteSpace=wrap;html=1;" vertex="1" parent="WIyWlLk6GJQsqaUBKTNV-1">
          <mxGeometry x="700" y="130" width="220" height="140" as="geometry" />
        </mxCell>
      </root>
    </mxGraphModel>
  </diagram>
</mxfile>
